<svg width="1280" height="640" viewBox="0 0 1280 640" fill="none" xmlns="http://www.w3.org/2000/svg">
  <defs>
    <radialGradient id="screenGlow" cx="0" cy="0" r="1" gradientUnits="userSpaceOnUse" gradientTransform="translate(362 312) rotate(45) scale(300)">
      <stop offset="0" stop-color="#203166"/>
      <stop offset="0.55" stop-color="#111827"/>
      <stop offset="1" stop-color="#070A12"/>
    </radialGradient>
    <linearGradient id="blue" x1="112" y1="88" x2="578" y2="554" gradientUnits="userSpaceOnUse">
      <stop stop-color="#65E6FF"/>
      <stop offset="0.5" stop-color="#4B7CFF"/>
      <stop offset="1" stop-color="#B16CFF"/>
    </linearGradient>
    <linearGradient id="amber" x1="145" y1="180" x2="250" y2="448" gradientUnits="userSpaceOnUse">
      <stop stop-color="#FFD27A"/>
      <stop offset="1" stop-color="#FF8B5D"/>
    </linearGradient>
    <filter id="softShadow" x="-30%" y="-30%" width="160%" height="160%">
      <feDropShadow dx="0" dy="30" stdDeviation="28" flood-color="#000000" flood-opacity="0.36"/>
    </filter>
  </defs>

  <rect width="1280" height="640" rx="48" fill="#0A0F1E"/>
  <path d="M0 0H1280V640H0V0Z" fill="url(#screenGlow)" opacity="0.72"/>
  <circle cx="140" cy="120" r="260" fill="#1D4ED8" opacity="0.18"/>
  <circle cx="1180" cy="610" r="360" fill="#7C3AED" opacity="0.16"/>

  <g filter="url(#softShadow)">
    <circle cx="362" cy="320" r="250" fill="#0C101B"/>
    <circle cx="362" cy="320" r="232" fill="#151B2B"/>
    <circle cx="362" cy="320" r="214" fill="#080B13"/>
    <path d="M175 394A202 202 0 0 1 288 133" stroke="url(#amber)" stroke-width="12" stroke-linecap="round"/>
    <path d="M438 129A202 202 0 0 1 551 393" stroke="url(#blue)" stroke-width="8" stroke-linecap="round" opacity="0.9"/>
    <path d="M180 240A195 195 0 0 1 271 148" stroke="#46F1FF" stroke-width="3" stroke-linecap="round" opacity="0.8"/>
    <path d="M450 150A195 195 0 0 1 541 240" stroke="#46F1FF" stroke-width="3" stroke-linecap="round" opacity="0.8"/>

    <rect x="310" y="156" width="104" height="104" rx="27" fill="#F8FAFC"/>
    <path d="M357 185C372 173 398 179 404 200C421 205 429 227 415 242C403 257 375 251 362 247C347 254 322 248 316 229C310 210 321 194 337 192C341 189 348 185 357 185Z" fill="#2563EB"/>
    <path d="M336 218L355 238L385 197" stroke="white" stroke-width="13" stroke-linecap="round" stroke-linejoin="round"/>
    <path d="M377 232H407" stroke="white" stroke-width="13" stroke-linecap="round"/>

    <g font-family="Inter, Arial, sans-serif">
      <text x="255" y="320" fill="#7DD3FC" font-size="20" font-weight="700">usage</text>
      <text x="430" y="320" fill="#C4B5FD" font-size="20" font-weight="700">weekly</text>
      <polyline points="224,386 245,368 266,374 287,342 308,350 329,315" stroke="#67E8F9" stroke-width="5" stroke-linecap="round" stroke-linejoin="round"/>
      <polyline points="398,374 419,358 440,362 461,330 482,340 503,304" stroke="#A78BFA" stroke-width="5" stroke-linecap="round" stroke-linejoin="round"/>
      <text x="246" y="463" fill="#E5E7EB" font-size="22" font-weight="700">5h</text>
      <text x="466" y="463" fill="#E5E7EB" font-size="22" font-weight="700">1w</text>
      <g fill="#5EEAD4">
        <rect x="284" y="446" width="8" height="22" rx="4"/>
        <rect x="299" y="446" width="8" height="22" rx="4"/>
        <rect x="314" y="446" width="8" height="22" rx="4"/>
        <rect x="329" y="446" width="8" height="22" rx="4"/>
        <rect x="344" y="446" width="8" height="22" rx="4"/>
      </g>
      <g fill="#9CA3AF">
        <rect x="359" y="446" width="8" height="22" rx="4"/>
        <rect x="374" y="446" width="8" height="22" rx="4"/>
        <rect x="389" y="446" width="8" height="22" rx="4"/>
        <rect x="404" y="446" width="8" height="22" rx="4"/>
      </g>
    </g>
  </g>

  <g font-family="Inter, Arial, sans-serif">
    <text x="690" y="178" fill="#F8FAFC" font-size="56" font-weight="800">StopWatch Desktop Monitor</text>
    <text x="694" y="228" fill="#CBD5E1" font-size="26">A local macOS service and ESP32-S3 firmware for turning</text>
    <text x="694" y="262" fill="#CBD5E1" font-size="26">an M5Stack StopWatch into a Codex / Claude Code status display.</text>

    <rect x="694" y="318" width="418" height="58" rx="16" fill="#101827" stroke="#334155"/>
    <text x="724" y="354" fill="#93C5FD" font-size="24" font-weight="700">npx github:Zanetach/stopwatch install</text>

    <g fill="#0F172A" stroke="#334155">
      <rect x="694" y="414" width="156" height="74" rx="18"/>
      <rect x="874" y="414" width="156" height="74" rx="18"/>
      <rect x="1054" y="414" width="156" height="74" rx="18"/>
    </g>
    <text x="732" y="446" fill="#F8FAFC" font-size="19" font-weight="700">LaunchAgent</text>
    <text x="724" y="472" fill="#94A3B8" font-size="16">background service</text>
    <text x="918" y="446" fill="#F8FAFC" font-size="19" font-weight="700">WebSocket</text>
    <text x="910" y="472" fill="#94A3B8" font-size="16">device bridge</text>
    <text x="1096" y="446" fill="#F8FAFC" font-size="19" font-weight="700">Aliyun ASR</text>
    <text x="1086" y="472" fill="#94A3B8" font-size="16">voice to text</text>
  </g>
</svg>
